<svg width="50" height="25" fill="none" xmlns="http://www.w3.org/2000/svg"><path fill-rule="evenodd" clip-rule="evenodd" d="M32.564 11.396c-.78.528-1.686.83-2.653.83-2.91 0-5.268-2.736-5.268-6.113 0-3.376.774-6.113 5.268-6.113 1.089 0 1.96.16 2.653.452-2.17.912-2.616 3.103-2.616 5.661 0 2.254 1.052 4.223 2.616 5.283zm-5.14 2.83c-.968-.437-1.66-.945-1.66-.945-5.688.981-5.702 1.976-5.771 6.78v.012c-.005.332-.01.681-.017 1.05-.006.292-.01.411-.012.446-.002.022-.003.012-.004-.008l.001.618s.975 1.877 5.938 2.569c-.174-.476-.533-1.549-.632-2.57v-.617.02a.792.792 0 00.006-.102l.004-.141.004-.215.011-.612.007-.438v-.013c.049-3.416.07-4.906 2.126-5.834z" fill="#fff"/><path d="M39.595 12.227c2.91 0 5.269-2.737 5.269-6.114 0-3.376-.775-6.113-5.269-6.113-4.493 0-5.268 2.737-5.268 6.113 0 3.377 2.359 6.114 5.268 6.114zm9.939 9.087c-.097-5.882.36-6.972-5.792-8.033 0 0-2.128 1.563-4.147 1.563-2.018 0-4.146-1.563-4.146-1.563-6.086 1.05-5.677 2.115-5.79 7.842-.008.468-.013.492-.014.438v.618S31.11 25 39.596 25s9.95-2.821 9.95-2.821v-.457c-.001.033-.004-.032-.01-.408zM7.544 5.556h3.336v15.277H7.544V5.556z" fill="#fff"/><path d="M17.969 11.74v2.91H.455v-2.91h17.514z" fill="#fff"/></svg>