<svg width="500" height="500" fill="none" xmlns="http://www.w3.org/2000/svg"><g clip-path="url(#clip0)"><g filter="url(#filter0_f)"><path d="M250.001 250L293.264 8.5h-86.527L250.001 250z" fill="url(#paint0_linear)"/><path d="M250.001 250l43.263 241.5h-86.527L250.001 250z" fill="url(#paint1_linear)"/><path d="M250 250.001l241.5 43.263v-86.527L250 250.001z" fill="url(#paint2_linear)"/><path d="M250 250.001L8.5 293.264v-86.527L250 250.001z" fill="url(#paint3_linear)"/><path d="M250 250.001l201.358-140.175-61.183-61.183L250 250z" fill="url(#paint4_linear)"/><path d="M250.001 250L109.826 451.358l-61.183-61.183L250 250z" fill="url(#paint5_linear)"/><path d="M249.999 250l140.175 201.358 61.183-61.183L249.999 250z" fill="url(#paint6_linear)"/><path d="M250 250.001L48.642 109.826l61.183-61.183L250 250z" fill="url(#paint7_linear)"/></g><path d="M250.001 250l8.16-45.555H241.84L250.001 250z" fill="url(#paint8_linear)"/><path d="M250.001 249.999l8.16 45.555H241.84l8.161-45.555z" fill="url(#paint9_linear)"/><path d="M250 250.001l45.555 8.16V241.84L250 250.001z" fill="url(#paint10_linear)"/><path d="M250.001 250.001l-45.555 8.16V241.84l45.555 8.161z" fill="url(#paint11_linear)"/><path d="M250 250l37.982-26.441-11.541-11.541L250 250z" fill="url(#paint12_linear)"/><path d="M250.001 249.999l-26.441 37.983-11.541-11.542 37.982-26.441z" fill="url(#paint13_linear)"/><path d="M250 249.999l26.441 37.983 11.541-11.542L250 249.999z" fill="url(#paint14_linear)"/><path d="M250.002 250l-37.983-26.441 11.542-11.541L250.002 250z" fill="url(#paint15_linear)"/><path d="M250.001 250l8.16-45.555H241.84L250.001 250z" fill="url(#paint16_linear)"/><path d="M250.001 249.999l8.16 45.555H241.84l8.161-45.555z" fill="url(#paint17_linear)"/><path d="M250 250.001l45.555 8.16V241.84L250 250.001z" fill="url(#paint18_linear)"/><path d="M250.001 250.001l-45.555 8.16V241.84l45.555 8.161z" fill="url(#paint19_linear)"/><path d="M250 250l37.982-26.441-11.541-11.541L250 250z" fill="url(#paint20_linear)"/><path d="M250.001 249.999l-26.441 37.983-11.541-11.542 37.982-26.441z" fill="url(#paint21_linear)"/><path d="M250 249.999l26.441 37.983 11.541-11.542L250 249.999z" fill="url(#paint22_linear)"/><path d="M250.002 250l-37.983-26.441 11.542-11.541L250.002 250z" fill="url(#paint23_linear)"/><path d="M250.001 250l18.138-101.25h-36.277L250.001 250z" fill="url(#paint24_linear)"/><path d="M250.001 249.999l18.138 101.25h-36.277l18.139-101.25z" fill="url(#paint25_linear)"/><path d="M250 250.002l101.25 18.138v-36.277L250 250.002z" fill="url(#paint26_linear)"/><path d="M250 250.002L148.75 268.14v-36.277L250 250.002z" fill="url(#paint27_linear)"/><path d="M250.001 250.001l84.42-58.768-25.651-25.652-58.769 84.42z" fill="url(#paint28_linear)"/><path d="M250.001 249.999l-58.768 84.42-25.652-25.651 84.42-58.769z" fill="url(#paint29_linear)"/><path d="M249.999 249.999l58.768 84.42 25.652-25.651-84.42-58.769z" fill="url(#paint30_linear)"/><path d="M250.001 250.001l-84.42-58.768 25.651-25.652 58.769 84.42z" fill="url(#paint31_linear)"/></g><defs><linearGradient id="paint0_linear" x1="250.001" y1="250" x2="250.001" y2="8.364" gradientUnits="userSpaceOnUse"><stop stop-color="#fff" stop-opacity=".7"/><stop offset=".861" stop-color="#fff" stop-opacity="0"/></linearGradient><linearGradient id="paint1_linear" x1="250.001" y1="250" x2="250.001" y2="491.636" gradientUnits="userSpaceOnUse"><stop stop-color="#fff" stop-opacity=".7"/><stop offset=".861" stop-color="#fff" stop-opacity="0"/></linearGradient><linearGradient id="paint2_linear" x1="250" y1="250.001" x2="491.636" y2="250.001" gradientUnits="userSpaceOnUse"><stop stop-color="#fff" stop-opacity=".7"/><stop offset=".861" stop-color="#fff" stop-opacity="0"/></linearGradient><linearGradient id="paint3_linear" x1="250" y1="250.001" x2="8.364" y2="250.001" gradientUnits="userSpaceOnUse"><stop stop-color="#fff" stop-opacity=".7"/><stop offset=".861" stop-color="#fff" stop-opacity="0"/></linearGradient><linearGradient id="paint4_linear" x1="250" y1="250.001" x2="420.863" y2="79.138" gradientUnits="userSpaceOnUse"><stop stop-color="#fff" stop-opacity=".7"/><stop offset=".861" stop-color="#fff" stop-opacity="0"/></linearGradient><linearGradient id="paint5_linear" x1="250.001" y1="250" x2="79.138" y2="420.863" gradientUnits="userSpaceOnUse"><stop stop-color="#fff" stop-opacity=".7"/><stop offset=".861" stop-color="#fff" stop-opacity="0"/></linearGradient><linearGradient id="paint6_linear" x1="249.999" y1="250" x2="420.861" y2="420.863" gradientUnits="userSpaceOnUse"><stop stop-color="#fff" stop-opacity=".7"/><stop offset=".861" stop-color="#fff" stop-opacity="0"/></linearGradient><linearGradient id="paint7_linear" x1="250" y1="250.001" x2="79.137" y2="79.138" gradientUnits="userSpaceOnUse"><stop stop-color="#fff" stop-opacity=".7"/><stop offset=".861" stop-color="#fff" stop-opacity="0"/></linearGradient><linearGradient id="paint8_linear" x1="250.001" y1="250" x2="250.001" y2="204.42" gradientUnits="userSpaceOnUse"><stop stop-color="#fff" stop-opacity=".7"/><stop offset=".861" stop-color="#fff" stop-opacity="0"/></linearGradient><linearGradient id="paint9_linear" x1="250.001" y1="249.999" x2="250.001" y2="295.579" gradientUnits="userSpaceOnUse"><stop stop-color="#fff" stop-opacity=".7"/><stop offset=".861" stop-color="#fff" stop-opacity="0"/></linearGradient><linearGradient id="paint10_linear" x1="250" y1="250.001" x2="295.58" y2="250.001" gradientUnits="userSpaceOnUse"><stop stop-color="#fff" stop-opacity=".7"/><stop offset=".861" stop-color="#fff" stop-opacity="0"/></linearGradient><linearGradient id="paint11_linear" x1="250.001" y1="250.001" x2="204.421" y2="250.001" gradientUnits="userSpaceOnUse"><stop stop-color="#fff" stop-opacity=".7"/><stop offset=".861" stop-color="#fff" stop-opacity="0"/></linearGradient><linearGradient id="paint12_linear" x1="250" y1="250" x2="282.23" y2="217.77" gradientUnits="userSpaceOnUse"><stop stop-color="#fff" stop-opacity=".7"/><stop offset=".861" stop-color="#fff" stop-opacity="0"/></linearGradient><linearGradient id="paint13_linear" x1="250.001" y1="249.999" x2="217.771" y2="282.229" gradientUnits="userSpaceOnUse"><stop stop-color="#fff" stop-opacity=".7"/><stop offset=".861" stop-color="#fff" stop-opacity="0"/></linearGradient><linearGradient id="paint14_linear" x1="250" y1="249.999" x2="282.23" y2="282.229" gradientUnits="userSpaceOnUse"><stop stop-color="#fff" stop-opacity=".7"/><stop offset=".861" stop-color="#fff" stop-opacity="0"/></linearGradient><linearGradient id="paint15_linear" x1="250.002" y1="250" x2="217.772" y2="217.77" gradientUnits="userSpaceOnUse"><stop stop-color="#fff" stop-opacity=".7"/><stop offset=".861" stop-color="#fff" stop-opacity="0"/></linearGradient><linearGradient id="paint16_linear" x1="250.001" y1="250" x2="250.001" y2="204.42" gradientUnits="userSpaceOnUse"><stop stop-color="#fff" stop-opacity=".7"/><stop offset=".861" stop-color="#fff" stop-opacity="0"/></linearGradient><linearGradient id="paint17_linear" x1="250.001" y1="249.999" x2="250.001" y2="295.579" gradientUnits="userSpaceOnUse"><stop stop-color="#fff" stop-opacity=".7"/><stop offset=".861" stop-color="#fff" stop-opacity="0"/></linearGradient><linearGradient id="paint18_linear" x1="250" y1="250.001" x2="295.58" y2="250.001" gradientUnits="userSpaceOnUse"><stop stop-color="#fff" stop-opacity=".7"/><stop offset=".861" stop-color="#fff" stop-opacity="0"/></linearGradient><linearGradient id="paint19_linear" x1="250.001" y1="250.001" x2="204.421" y2="250.001" gradientUnits="userSpaceOnUse"><stop stop-color="#fff" stop-opacity=".7"/><stop offset=".861" stop-color="#fff" stop-opacity="0"/></linearGradient><linearGradient id="paint20_linear" x1="250" y1="250" x2="282.23" y2="217.77" gradientUnits="userSpaceOnUse"><stop stop-color="#fff" stop-opacity=".7"/><stop offset=".861" stop-color="#fff" stop-opacity="0"/></linearGradient><linearGradient id="paint21_linear" x1="250.001" y1="249.999" x2="217.771" y2="282.229" gradientUnits="userSpaceOnUse"><stop stop-color="#fff" stop-opacity=".7"/><stop offset=".861" stop-color="#fff" stop-opacity="0"/></linearGradient><linearGradient id="paint22_linear" x1="250" y1="249.999" x2="282.23" y2="282.229" gradientUnits="userSpaceOnUse"><stop stop-color="#fff" stop-opacity=".7"/><stop offset=".861" stop-color="#fff" stop-opacity="0"/></linearGradient><linearGradient id="paint23_linear" x1="250.002" y1="250" x2="217.772" y2="217.77" gradientUnits="userSpaceOnUse"><stop stop-color="#fff" stop-opacity=".7"/><stop offset=".861" stop-color="#fff" stop-opacity="0"/></linearGradient><linearGradient id="paint24_linear" x1="250.001" y1="250" x2="250.001" y2="148.693" gradientUnits="userSpaceOnUse"><stop stop-color="#fff" stop-opacity=".7"/><stop offset=".861" stop-color="#fff" stop-opacity="0"/></linearGradient><linearGradient id="paint25_linear" x1="250.001" y1="249.999" x2="250.001" y2="351.306" gradientUnits="userSpaceOnUse"><stop stop-color="#fff" stop-opacity=".7"/><stop offset=".861" stop-color="#fff" stop-opacity="0"/></linearGradient><linearGradient id="paint26_linear" x1="250" y1="250.002" x2="351.307" y2="250.002" gradientUnits="userSpaceOnUse"><stop stop-color="#fff" stop-opacity=".7"/><stop offset=".861" stop-color="#fff" stop-opacity="0"/></linearGradient><linearGradient id="paint27_linear" x1="250" y1="250.002" x2="148.693" y2="250.002" gradientUnits="userSpaceOnUse"><stop stop-color="#fff" stop-opacity=".7"/><stop offset=".861" stop-color="#fff" stop-opacity="0"/></linearGradient><linearGradient id="paint28_linear" x1="250.001" y1="250.001" x2="321.636" y2="178.367" gradientUnits="userSpaceOnUse"><stop stop-color="#fff" stop-opacity=".7"/><stop offset=".861" stop-color="#fff" stop-opacity="0"/></linearGradient><linearGradient id="paint29_linear" x1="250.001" y1="249.999" x2="178.367" y2="321.634" gradientUnits="userSpaceOnUse"><stop stop-color="#fff" stop-opacity=".7"/><stop offset=".861" stop-color="#fff" stop-opacity="0"/></linearGradient><linearGradient id="paint30_linear" x1="249.999" y1="249.999" x2="321.633" y2="321.634" gradientUnits="userSpaceOnUse"><stop stop-color="#fff" stop-opacity=".7"/><stop offset=".861" stop-color="#fff" stop-opacity="0"/></linearGradient><linearGradient id="paint31_linear" x1="250.001" y1="250.001" x2="178.366" y2="178.367" gradientUnits="userSpaceOnUse"><stop stop-color="#fff" stop-opacity=".7"/><stop offset=".861" stop-color="#fff" stop-opacity="0"/></linearGradient><clipPath id="clip0"><path fill="#fff" d="M0 0h500v500H0z"/></clipPath><filter id="filter0_f" x="-82" y="-82" width="664" height="664" filterUnits="userSpaceOnUse" color-interpolation-filters="sRGB"><feFlood flood-opacity="0" result="BackgroundImageFix"/><feBlend in="SourceGraphic" in2="BackgroundImageFix" result="shape"/><feGaussianBlur stdDeviation="5" result="effect1_foregroundBlur"/></filter></defs></svg>