<svg width="21" height="21" fill="none" xmlns="http://www.w3.org/2000/svg"><path d="M0 2V0h10L8 2H0z" fill="url(#paint0_linear)"/><path d="M0 0h2v8l-2 2V0z" fill="url(#paint1_linear)"/><path d="M8 4l4-4h4l-4 4H8z" fill="url(#paint2_linear)"/><path d="M4 8l-4 4v4l4-4V8z" fill="url(#paint3_linear)"/><path d="M0 18l3-3v3l-3 3v-3z" fill="url(#paint4_linear)"/><path d="M18 0l-3 3h3l3-3h-3z" fill="url(#paint5_linear)"/><path d="M8 4h4l-8 8V8l4-4z" fill="url(#paint6_linear)"/><defs><linearGradient id="paint0_linear" x1="0" y1="0" x2="15" y2="15" gradientUnits="userSpaceOnUse"><stop stop-color="#FF5309"/><stop offset="1" stop-color="#FF5309" stop-opacity="0"/></linearGradient><linearGradient id="paint1_linear" x1="0" y1="0" x2="15" y2="15" gradientUnits="userSpaceOnUse"><stop stop-color="#FF5309"/><stop offset="1" stop-color="#FF5309" stop-opacity="0"/></linearGradient><linearGradient id="paint2_linear" x1="0" y1="0" x2="15" y2="15" gradientUnits="userSpaceOnUse"><stop stop-color="#FF5309"/><stop offset="1" stop-color="#FF5309" stop-opacity="0"/></linearGradient><linearGradient id="paint3_linear" x1="0" y1="0" x2="15" y2="15" gradientUnits="userSpaceOnUse"><stop stop-color="#FF5309"/><stop offset="1" stop-color="#FF5309" stop-opacity="0"/></linearGradient><linearGradient id="paint4_linear" x1="0" y1="0" x2="15" y2="15" gradientUnits="userSpaceOnUse"><stop stop-color="#FF5309"/><stop offset="1" stop-color="#FF5309" stop-opacity="0"/></linearGradient><linearGradient id="paint5_linear" x1="0" y1="0" x2="15" y2="15" gradientUnits="userSpaceOnUse"><stop stop-color="#FF5309"/><stop offset="1" stop-color="#FF5309" stop-opacity="0"/></linearGradient><linearGradient id="paint6_linear" x1="0" y1="0" x2="15" y2="15" gradientUnits="userSpaceOnUse"><stop stop-color="#FF5309"/><stop offset="1" stop-color="#FF5309" stop-opacity="0"/></linearGradient></defs></svg>