<?xml version="1.0" encoding="UTF-8" ?>
<!DOCTYPE svg PUBLIC "-//W3C//DTD SVG 1.1//EN" "http://www.w3.org/Graphics/SVG/1.1/DTD/svg11.dtd">
<svg width="570pt" height="402pt" viewBox="0 0 570 402" version="1.1" xmlns="http://www.w3.org/2000/svg">
<g id="#b3b3b3ff">
<path fill="#b3b3b3" opacity="1.00" d=" M 339.31 50.87 C 330.20 53.03 321.07 55.53 312.68 59.77 C 310.93 60.61 309.38 61.78 307.94 63.08 C 308.61 65.57 309.22 68.08 309.79 70.59 C 230.75 74.56 151.72 78.59 72.68 82.53 C 76.80 168.37 81.41 254.19 85.53 340.02 C 145.51 337.15 205.48 334.06 265.45 330.98 C 263.48 336.22 261.39 341.42 259.38 346.66 C 198.92 349.62 138.47 352.74 78.01 355.77 C 73.91 356.13 68.09 354.46 67.81 349.56 C 63.13 257.99 58.57 166.42 53.93 74.85 C 53.10 69.50 58.07 64.82 63.21 64.74 C 155.24 60.14 247.27 55.37 339.31 50.87 Z" />
<path fill="#b3b3b3" opacity="1.00" d=" M 360.23 59.22 C 366.72 57.57 373.31 55.94 380.02 55.64 C 422.30 57.24 464.58 58.92 506.87 60.55 C 511.21 60.45 513.80 65.07 513.53 68.98 C 509.99 160.97 506.40 252.97 502.83 344.97 C 503.15 348.79 499.92 352.26 496.01 351.76 C 421.82 348.90 347.63 345.91 273.44 343.17 C 275.92 338.21 278.19 333.15 280.77 328.24 C 349.84 330.68 418.92 333.49 487.99 336.22 C 491.04 250.29 494.77 164.37 497.80 78.44 C 447.97 76.63 398.15 74.51 348.32 72.73 C 347.88 70.10 347.47 67.47 347.10 64.83 C 350.86 61.77 355.70 60.65 360.23 59.22 Z" />
<path fill="#b3b3b3" opacity="1.00" d=" M 119.42 105.68 C 133.17 101.95 148.71 109.44 154.52 122.41 C 159.52 132.97 157.91 146.38 150.25 155.28 C 142.66 164.58 129.33 168.51 117.91 164.85 C 106.14 161.38 97.17 150.20 96.41 137.93 C 94.92 123.44 105.22 108.95 119.42 105.68 Z" />
<path fill="#b3b3b3" opacity="1.00" d=" M 329.68 149.61 C 333.03 145.60 337.51 141.84 343.00 141.73 C 349.54 141.54 355.13 146.10 358.86 151.09 C 389.85 196.78 420.82 242.49 451.79 288.19 C 460.11 300.17 467.90 312.53 476.54 324.27 C 473.75 323.68 470.90 323.73 468.08 323.63 C 407.30 321.22 346.52 319.02 285.75 316.48 C 292.88 301.20 299.96 285.90 307.17 270.66 C 300.66 255.94 294.01 241.29 287.46 226.60 C 286.72 225.40 287.32 224.07 287.67 222.87 C 291.24 211.96 294.78 201.03 298.26 190.09 C 298.93 187.74 300.79 186.05 302.22 184.17 C 311.37 172.65 320.52 161.12 329.68 149.61 Z" />
<path fill="#b3b3b3" opacity="1.00" d=" M 226.24 257.46 C 241.21 234.98 255.87 212.31 270.90 189.88 C 268.23 202.55 264.96 215.13 262.44 227.81 C 270.28 242.41 278.51 256.81 286.54 271.30 C 280.91 287.17 274.98 302.95 269.43 318.85 C 266.34 319.42 263.18 319.33 260.05 319.53 C 205.54 322.34 151.02 324.95 96.51 327.85 C 118.54 295.03 140.25 262.00 162.13 229.08 C 166.25 223.17 169.75 215.74 177.06 213.25 C 184.33 210.97 191.66 215.35 196.26 220.74 C 206.30 232.94 216.22 245.24 226.24 257.46 Z" />
</g>
</svg>
