<svg height="512pt" viewBox="0 -91 512 512" width="512pt" xmlns="http://www.w3.org/2000/svg"><path d="m326.003906 30h185.996094v30h-185.996094zm0 0" fill="#444"/><path d="m360.097656 100.199219-104.097656 2.101562-135 2.699219v-105h205.800781zm0 0" fill="#6e6e6e"/><path d="m360.097656 100.199219-104.097656 2.101562v-102.300781h70.800781zm0 0" fill="#5a5a5a"/><path d="m61 90h390v75h-390zm0 0" fill="#00ee84"/><path d="m256 90h195v75h-195zm0 0" fill="#00cc71"/><path d="m421 210h-330c-24.902344 0-45 20.097656-45 45 0 18.300781 10.800781 34.5 27.597656 41.398438l69.300782 29.101562c7.5 3 15 4.5 23.101562 4.5h180c8.101562 0 15.601562-1.5 23.101562-4.5l69-28.800781h.300782c16.796875-7.199219 27.597656-23.398438 27.597656-41.699219 0-24.902344-20.097656-45-45-45zm0 0" fill="#5a5a5a"/><path d="m466 255c0 18.300781-10.800781 34.5-27.597656 41.699219h-.300782l-69 28.800781c-7.5 3-15 4.5-23.101562 4.5h-90v-120h165c24.902344 0 45 20.097656 45 45zm0 0" fill="#444"/><g fill="#ececf1"><path d="m91 240c8.277344 0 15 6.722656 15 15-.015625 10.253906-11.382812 17.769531-20.769531 13.84375-5.613281-2.328125-9.230469-7.765625-9.230469-13.84375 0-8.277344 6.722656-15 15-15zm0 0"/><path d="m154.472656 297.714844c-11.222656-4.6875-18.472656-15.558594-18.472656-27.714844 0-16.539062 13.460938-30 30-30s30 13.460938 30 30c.015625 20.523438-22.734375 35.535156-41.527344 27.714844zm0 0"/><path d="m256 240c-16.5 0-30 13.5-30 30s13.5 30 30 30 30-13.5 30-30-13.5-30-30-30zm0 0"/></g><path d="m316 270c0-16.539062 13.460938-30 30-30s30 13.460938 30 30c0 12.15625-7.25 23.027344-18.441406 27.699219-18.925782 7.808593-41.558594-7.175781-41.558594-27.699219zm0 0" fill="#e2e2e7"/><path d="m436 255c0 6.078125-3.617188 11.515625-9.242188 13.855469-9.347656 3.984375-20.742187-3.585938-20.757812-13.855469 0-8.277344 6.722656-15 15-15s15 6.722656 15 15zm0 0" fill="#e2e2e7"/><path d="m286 270c0 16.5-13.5 30-30 30v-60c16.5 0 30 13.5 30 30zm0 0" fill="#e2e2e7"/><path d="m512 176.699219-19.800781 22.5c-13.800781-12.300781-37.597657-19.199219-56.199219-19.199219h-360c-18.601562 0-42.398438 6.898438-56.199219 19.199219l-19.800781-22.5c19.199219-17.097657 50.199219-26.699219 76-26.699219h360c25.800781 0 56.800781 9.601562 76 26.699219zm0 0" fill="#5a5a5a"/><path d="m512 176.699219-19.800781 22.5c-13.800781-12.300781-37.597657-19.199219-56.199219-19.199219h-180v-30h180c25.800781 0 56.800781 9.601562 76 26.699219zm0 0" fill="#444"/></svg>