<?xml version="1.0" encoding="UTF-8" ?>
<!DOCTYPE svg PUBLIC "-//W3C//DTD SVG 1.1//EN" "http://www.w3.org/Graphics/SVG/1.1/DTD/svg11.dtd">
<svg width="25px" height="24px" viewBox="0 0 25 24" version="1.1" xmlns="http://www.w3.org/2000/svg">
<path fill="#bfd5ff" opacity="1.00" d=" M 10.10 0.00 L 15.26 0.00 C 18.32 0.46 22.92 0.38 23.94 4.10 C 25.16 9.21 25.32 14.70 23.96 19.79 C 22.95 23.24 18.91 23.55 15.94 24.00 L 10.78 24.00 C 7.57 23.63 2.94 23.66 1.88 19.82 C 0.47 14.64 0.57 9.00 1.95 3.81 C 3.03 0.44 7.24 0.54 10.10 0.00 M 4.85 8.14 C 6.05 10.50 7.14 12.99 9.02 14.90 C 10.68 16.62 14.41 17.28 14.81 14.12 C 16.32 16.19 18.59 16.82 21.05 16.24 C 20.03 15.09 19.01 13.94 18.02 12.76 C 19.02 11.20 20.00 9.64 21.00 8.08 C 19.73 8.12 18.47 8.16 17.20 8.20 C 16.39 9.70 15.41 11.11 14.26 12.38 C 14.17 10.88 14.10 9.39 14.04 7.90 C 13.23 7.85 11.62 7.75 10.81 7.70 C 10.93 9.27 11.01 10.84 11.05 12.42 C 9.74 11.24 8.77 9.75 7.96 8.19 C 7.19 8.18 5.63 8.15 4.85 8.14 Z" />
</svg>
