<svg width="32" height="24" fill="none" xmlns="http://www.w3.org/2000/svg"><path d="M16.225 11.738c2.698 0 4.885-2.628 4.885-5.87 0-3.24-.718-5.868-4.885-5.868-4.166 0-4.884 2.628-4.884 5.869 0 3.241 2.187 5.869 4.884 5.869zm9.215 8.724c-.09-5.647.01-6.973-5.37-7.712 0 0-1.973 1.5-3.845 1.5-1.871 0-3.844-1.5-3.844-1.5-5.642 1.007-5.263 2.03-5.367 7.528-.009.449-.012.473-.014.42v.594S8.36 24 16.226 24c7.867 0 9.225-2.708 9.225-2.708v-.44c-.001.033-.004-.03-.01-.39z" fill="#fff"/><path opacity=".5" fill-rule="evenodd" clip-rule="evenodd" d="M8.655 2.13c-1.164.853-1.429 2.314-1.429 3.973 0 1.937 1.1 3.604 2.679 4.348a3.704 3.704 0 01-2.261.781c-2.235 0-4.047-2.052-4.047-4.584 0-2.533.595-4.585 4.047-4.585.369 0 .705.023 1.011.068zm-3.57 10.28c-1.792.722-1.81 1.88-1.853 4.555-.004.261-.008.537-.014.828-.008.364-.012.383-.013.341v.481c.077.71.33 1.451.49 1.866C.633 19.886.001 18.697.001 18.697L0 18.233c.001.04.005.023.012-.328.007-.352.01-.68.014-.99.039-3.467.049-4.361 4.433-4.892 0 0 .241.174.627.387zm2.51 8.402h.097-.096zM23.345 2.13c1.164.853 1.429 2.314 1.429 3.973 0 1.937-1.1 3.604-2.679 4.348a3.704 3.704 0 002.261.781c2.235 0 4.047-2.052 4.047-4.584 0-2.533-.595-4.585-4.047-4.585-.369 0-.705.023-1.011.068zm3.57 10.28c1.792.722 1.81 1.88 1.853 4.555.004.261.008.537.014.828.008.364.012.383.013.341v.481c-.077.71-.33 1.451-.49 1.866 3.062-.595 3.694-1.784 3.694-1.784l.001-.464c-.001.04-.005.023-.012-.328-.007-.352-.01-.68-.014-.99-.039-3.467-.049-4.361-4.433-4.892 0 0-.241.174-.627.387zm-2.51 8.402h-.097.096z" fill="#fff"/></svg>