<svg width="122" height="122" viewBox="0 0 122 122" fill="none" xmlns="http://www.w3.org/2000/svg">
<path d="M60 30C60 46.5685 46.5685 60 30 60C13.4315 60 0 46.5685 0 30C0 13.4315 13.4315 0 30 0C46.5685 0 60 13.4315 60 30Z" fill="white"/>
<path d="M122 25C122 38.8071 110.807 50 97 50C83.1929 50 72 38.8071 72 25C72 11.1929 83.1929 0 97 0C110.807 0 122 11.1929 122 25Z" fill="white"/>
<path d="M122 97C122 110.807 110.807 122 97 122C83.1929 122 72 110.807 72 97C72 83.1929 83.1929 72 97 72C110.807 72 122 83.1929 122 97Z" fill="white"/>
<path d="M50 97C50 110.807 38.8071 122 25 122C11.1929 122 0 110.807 0 97C0 83.1929 11.1929 72 25 72C38.8071 72 50 83.1929 50 97Z" fill="white"/>
</svg>
