<svg width="56" height="56" fill="none" xmlns="http://www.w3.org/2000/svg"><path fill-rule="evenodd" clip-rule="evenodd" d="M43.375 32.832l-1.068 2.592s2.624 5.618 2.395 5.846l-3.294 3.291c-.22.218-5.945-2.272-5.945-2.272l-2.6 1.073s-2.119 5.827-2.442 5.827h-4.652c-.316 0-2.6-5.81-2.6-5.81l-2.593-1.073s-5.621 2.618-5.845 2.395l-3.294-3.293c-.217-.221 2.272-5.952 2.272-5.952l-1.071-2.589s-5.827-2.12-5.827-2.445v-4.655c0-.309 5.814-2.595 5.814-2.595l1.07-2.593s-2.62-5.622-2.392-5.846l3.29-3.291c.221-.222 5.957 2.267 5.957 2.267l2.588-1.072s2.118-5.826 2.441-5.826h4.651c.314 0 2.6 5.813 2.6 5.813l2.592 1.07s5.618-2.618 5.848-2.392l3.293 3.286c.223.221-2.268 5.956-2.268 5.956l1.07 2.596s5.826 2.115 5.824 2.436v4.652c.002.313-5.814 2.604-5.814 2.604zm-16.82-15.43a10.6 10.6 0 00-7.175 3.273 10.612 10.612 0 007.176 17.923C32.14 38.598 28 33.853 28 28c0-5.853 4.14-10.598-1.444-10.598zm6.26 21.196h2.889l.962-11.562h-4.814l.963 11.562zm1.444-21.196s-3.37 2.473-3.37 4.335c0 1.863 1.509 4.336 3.37 4.336 1.861 0 3.37-2.473 3.37-4.336 0-1.862-3.37-4.335-3.37-4.335zM24.15 35.707a1.925 1.925 0 01-1.362-3.29 1.925 1.925 0 013.287 1.363 1.928 1.928 0 01-1.925 1.927zm0-11.561a1.925 1.925 0 01-1.362-3.29 1.925 1.925 0 112.723 2.726 1.926 1.926 0 01-1.361.564zM23.186 28a1.927 1.927 0 01-3.288 1.362 1.928 1.928 0 012.724-2.725c.36.362.564.852.564 1.363z" fill="#fff"/></svg>